<svg width="122" height="152" viewBox="0 0 122 152" fill="none" xmlns="http://www.w3.org/2000/svg">
<path d="M61.7039 55.9214C62.3559 53.4474 62.9509 51.1904 63.5459 48.9324C64.7079 44.5204 66.0669 40.1674 67.9799 36.0224C71.9719 27.3724 78.2589 21.0774 87.2469 17.6534C89.2119 16.9044 91.2549 16.4454 93.3679 16.3344C97.4199 16.1214 100.4 17.8444 102.392 21.3344C104.395 24.8424 104.985 28.6984 105.06 32.6564C105.182 39.1704 104.055 45.5304 102.726 51.8804C100.143 64.2164 95.0319 75.6014 89.6389 86.8664C83.7569 99.1514 76.2909 110.5 68.5129 121.645C65.5929 125.828 62.9429 130.207 59.5949 134.082C58.5819 135.254 57.5909 136.449 56.5129 137.559C55.8159 138.277 54.9279 138.464 54.0379 137.825C53.0719 137.131 52.7639 136.082 53.4659 135.209C54.6909 133.687 54.3049 132.173 53.9339 130.557C51.8929 121.673 48.1359 113.489 43.6259 105.641C40.3549 99.9494 37.1919 94.2064 34.2569 88.3354C28.1569 76.1334 23.5579 63.3914 20.6839 50.0544C19.4049 44.1194 19.3699 38.1104 20.3389 32.1094C20.8249 29.1004 21.9269 26.3164 23.5569 23.7474C26.7859 18.6594 31.1799 17.0404 36.9739 18.7994C40.6699 19.9214 43.5949 22.2084 46.1059 25.0494C51.2399 30.8574 55.0329 37.4634 57.5869 44.7734C58.6079 47.6964 59.4909 50.6674 60.4859 53.6004C60.7309 54.3264 60.7569 55.2094 61.7039 55.9214ZM56.6419 130.95C57.6059 130.288 58.1709 129.455 58.7349 128.657C60.8899 125.608 63.0039 122.529 65.1319 119.461C72.6649 108.6 79.9539 97.5824 85.7009 85.6444C91.1559 74.3124 96.3279 62.8644 98.9209 50.4424C100.304 43.8204 101.374 37.1864 100.886 30.3874C100.714 27.9914 100.121 25.7134 98.9989 23.5924C97.6369 21.0164 95.8169 20.0674 92.9499 20.4114C91.4089 20.5964 89.9139 20.9704 88.4579 21.5324C80.7479 24.5044 75.3469 29.9134 71.8579 37.3074C70.1839 40.8564 68.9549 44.5784 67.9059 48.3554C66.8819 52.0394 65.9289 55.7434 64.9009 59.4254C64.6329 60.3834 64.3209 61.3674 63.8169 62.2134C62.5869 64.2794 60.5169 64.2874 59.2799 62.2384C58.7689 61.3924 58.4429 60.4194 58.1289 59.4724C56.6689 55.0644 55.3139 50.6214 53.7879 46.2374C51.3679 39.2814 47.8129 32.9614 42.8519 27.4774C40.8659 25.2814 38.5689 23.5244 35.6949 22.6404C31.8469 21.4564 29.1359 22.4334 27.0259 25.8294C25.5199 28.2534 24.5659 30.8844 24.1419 33.7264C23.0309 41.1834 24.1079 48.4224 26.1229 55.5984C30.6739 71.8104 37.1819 87.2094 45.2589 101.962C50.0449 110.704 54.1149 119.727 56.1679 129.549C56.2559 129.973 56.4459 130.378 56.6419 130.95Z" fill="#344E41"/>
<path d="M95.6319 102.37C95.4869 102.683 95.3059 103.202 95.0249 103.66C93.2139 106.608 91.4109 109.561 89.5389 112.47C88.9789 113.34 88.2929 114.687 87.0379 113.867C85.7299 113.012 86.7949 111.967 87.3779 111.071C89.4139 107.943 91.4489 104.815 93.4709 101.678C93.7869 101.187 94.1329 100.785 94.7709 100.938C95.3889 101.085 95.6419 101.54 95.6319 102.37Z" fill="#344E41"/>
<path d="M68.562 137.672C68.552 138.149 68.37 138.554 68.054 138.904C65.917 141.273 64.217 144.008 61.921 146.242C61.403 146.746 60.8369 147.215 60.2369 147.618C59.6399 148.018 58.991 147.96 58.52 147.385C58.022 146.777 58.2249 146.125 58.7449 145.681C59.9279 144.673 61.049 143.61 62.055 142.427C63.53 140.692 64.999 138.951 66.459 137.203C66.836 136.752 67.26 136.453 67.868 136.629C68.375 136.776 68.549 137.179 68.562 137.672Z" fill="#344E41"/>
<path d="M3.36494 48.4114C3.35794 49.2354 3.12392 49.9274 2.23292 50.0244C1.47592 50.1064 1.07993 49.4924 0.897933 48.8864C0.691933 48.1994 0.674942 47.4574 0.562942 46.7414C0.0859419 43.6814 0.133944 40.5884 0.00294434 37.5074C-0.0250557 36.8484 0.136927 36.1464 0.909927 36.0434C1.79193 35.9254 2.27094 36.4994 2.29094 37.3414C2.37894 41.0674 2.77494 44.7624 3.36494 48.4114Z" fill="#344E41"/>
<path d="M82.7619 119.014C83.4499 119.064 83.8999 119.473 83.7489 120.24C83.6469 120.755 83.3709 121.263 83.0749 121.709C81.3119 124.365 79.3769 126.895 77.3499 129.353C77.0649 129.699 76.7219 130.011 76.3599 130.277C75.9639 130.569 75.5139 130.569 75.0949 130.279C74.5739 129.919 74.4289 129.394 74.6519 128.845C74.8179 128.435 75.1209 128.07 75.4089 127.723C77.5039 125.204 79.6159 122.699 81.4389 119.969C81.7489 119.506 82.0579 119.066 82.7619 119.014Z" fill="#344E41"/>
<path d="M96.4438 0.0294615C99.3958 0.523462 102.398 0.81746 105.12 2.22046C105.604 2.47046 106.089 2.72046 106.556 3.00046C107.155 3.35846 107.566 3.85546 107.168 4.56646C106.793 5.23846 106.161 5.28946 105.519 4.96746C103.306 3.85646 100.979 3.13046 98.5188 2.84146C97.6168 2.73546 96.7108 2.66346 95.8078 2.56546C94.9278 2.46946 94.1268 2.21046 94.2748 1.10746C94.3938 0.222461 95.1119 0.00946222 95.8989 0.000462221C96.0799 -0.00353778 96.2618 0.0194615 96.4438 0.0294615Z" fill="#344E41"/>
<path d="M99.7259 93.0015C99.1649 92.9435 98.8179 92.5665 98.7289 91.9635C98.6429 91.3875 98.9249 90.8965 99.2029 90.4285C100.643 88.0025 102.085 85.5775 103.559 83.1715C103.836 82.7195 104.208 82.2905 104.628 81.9725C105.012 81.6815 105.487 81.7845 105.874 82.1175C106.189 82.3885 106.209 82.7475 106.164 83.1115C106.142 83.2865 106.064 83.4635 105.975 83.6195C104.358 86.4685 102.743 89.3185 101.107 92.1565C100.83 92.6365 100.42 93.0065 99.7259 93.0015Z" fill="#344E41"/>
<path d="M45.0849 135.081C44.3239 135.121 43.9319 134.633 43.6309 134.042C42.2279 131.284 40.8179 128.53 39.4449 125.757C39.0949 125.049 39.0788 124.295 39.9138 123.88C40.6618 123.508 41.1519 124.026 41.4619 124.595C42.9849 127.393 44.5099 130.191 45.9449 133.034C46.5199 134.173 46.0559 135.065 45.0849 135.081Z" fill="#344E41"/>
<path d="M113.788 10.7694C114.613 10.8164 115.219 11.3794 115.744 12.0134C117.512 14.1474 118.653 16.6144 119.425 19.2534C119.621 19.9244 119.839 20.8134 118.935 21.1304C117.952 21.4754 117.447 20.7254 117.109 19.9294C116.755 19.0934 116.496 18.2134 116.106 17.3944C115.294 15.6904 114.75 13.8024 112.965 12.7344C112.464 12.4344 112.223 11.9254 112.555 11.3354C112.802 10.8954 113.233 10.7674 113.788 10.7694Z" fill="#344E41"/>
<path d="M11.1719 73.8645C11.7269 73.8845 12.1639 74.3785 12.4829 74.9175C13.9619 77.4135 15.4139 79.9255 16.8459 82.4485C17.2299 83.1245 17.3389 83.8875 16.5759 84.3785C15.7829 84.8885 15.1319 84.4035 14.7559 83.7515C13.1709 81.0045 11.6169 78.2375 10.1199 75.4415C9.71491 74.6855 10.2579 73.8605 11.1719 73.8645Z" fill="#344E41"/>
<path d="M21.1719 4.81145C21.1989 5.45445 20.854 5.90945 20.322 6.09245C17.451 7.08145 15.276 8.93245 13.528 11.3674C13.192 11.8354 12.616 12.0194 12.067 11.6924C11.526 11.3694 11.463 10.8015 11.605 10.2455C11.693 9.90145 11.852 9.55245 12.063 9.26745C13.962 6.69045 16.4439 4.92945 19.5079 3.98245C20.3629 3.71845 20.9229 3.92745 21.1719 4.81145Z" fill="#344E41"/>
<path d="M7.82689 17.0935C7.75089 17.3375 7.6159 17.7645 7.4839 18.1925C6.8429 20.2675 6.2069 22.3435 5.5609 24.4165C5.3729 25.0205 5.20591 25.6395 4.94091 26.2105C4.65991 26.8145 4.1879 27.2965 3.4439 27.0475C2.7549 26.8175 2.47589 26.2495 2.62389 25.5385C2.73389 25.0085 2.90091 24.4885 3.07491 23.9745C3.88491 21.5735 4.71492 19.1795 5.51592 16.7755C5.74392 16.0905 6.13691 15.6595 6.88991 15.7505C7.52591 15.8285 7.79489 16.2745 7.82689 17.0935Z" fill="#344E41"/>
<path d="M120.479 46.7424C119.981 48.9514 119.393 51.6974 118.724 54.4244C118.548 55.1414 118.055 55.8354 117.177 55.6334C116.105 55.3864 116.181 54.5184 116.382 53.6684C116.985 51.1124 117.643 48.5664 118.151 45.9914C118.316 45.1554 118.207 44.2265 119.372 44.3305C120.436 44.4255 120.501 45.3324 120.479 46.7424Z" fill="#344E41"/>
<path d="M8.70195 66.4995C8.72895 67.4305 8.42796 67.8665 7.87996 68.0765C7.41796 68.2545 6.97895 68.0725 6.67195 67.7025C6.44695 67.4315 6.24497 67.1175 6.12297 66.7895C5.20797 64.3405 4.30996 61.8855 3.41896 59.4285C3.16296 58.7225 2.99396 57.9365 3.83796 57.5515C4.69896 57.1595 5.20897 57.8035 5.49397 58.4965C6.62497 61.2465 7.70995 64.0145 8.70195 66.4995Z" fill="#344E41"/>
<path d="M33.1158 2.30547C34.7888 2.43047 36.5969 2.60646 38.3389 3.17946C38.7679 3.32046 39.2079 3.46747 39.5949 3.69247C40.1709 4.02647 40.6339 4.47847 40.2719 5.23347C39.9919 5.81647 39.4579 5.98347 38.8979 5.78647C36.1889 4.83147 33.4399 4.46347 30.5909 5.02947C30.0199 5.14247 29.4739 4.89147 29.2689 4.30947C29.0129 3.58347 29.4089 3.06047 30.0359 2.76747C30.9609 2.33647 31.9678 2.29447 33.1158 2.30547Z" fill="#344E41"/>
<path d="M52.002 149.328C52.076 150.53 51.787 151.07 51.072 151.227C50.311 151.394 49.855 150.875 49.649 150.258C48.794 147.694 47.993 145.111 47.174 142.535C47.092 142.277 46.989 142.021 46.948 141.756C46.873 141.281 46.994 140.836 47.438 140.604C47.977 140.322 48.482 140.435 48.881 140.916C48.939 140.985 49.012 141.052 49.042 141.133C50.084 144.01 51.122 146.888 52.002 149.328Z" fill="#344E41"/>
<path d="M35.4738 114.414C35.4868 115.253 34.5129 115.753 33.6659 115.348C33.0529 115.055 32.7768 114.473 32.4478 113.94C31.2638 112.025 30.4278 109.903 28.9818 108.141C28.5258 107.585 28.4678 106.989 29.0568 106.468C29.6398 105.953 30.2819 106.019 30.7299 106.576C32.6029 108.906 33.9009 111.599 35.4199 114.153C35.4619 114.225 35.4558 114.326 35.4738 114.414Z" fill="#344E41"/>
<path d="M119.433 33.0905C119.408 31.4505 119.533 29.9055 119.248 28.3685C119.139 27.7845 119.36 27.2785 120.026 27.1515C120.636 27.0345 121.136 27.2945 121.353 27.8475C121.547 28.3435 121.631 28.8975 121.675 29.4335C121.869 31.7935 121.847 34.1565 121.68 36.5175C121.648 36.9685 121.62 37.4405 121.468 37.8585C121.241 38.4825 120.818 39.0135 120.062 38.8705C119.437 38.7515 119.213 38.1945 119.228 37.6205C119.27 36.0785 119.364 34.5365 119.433 33.0905Z" fill="#344E41"/>
<path d="M53.3189 16.6325C53.2789 17.1145 53.093 17.5115 52.619 17.6985C52.133 17.8905 51.731 17.6705 51.393 17.3505C51.201 17.1685 51.043 16.9315 50.923 16.6925C49.851 14.5535 48.365 12.7255 46.664 11.0685C45.993 10.4145 45.603 9.71248 46.38 8.98148C47.083 8.32048 47.729 8.85748 48.26 9.38748C49.871 10.9925 51.432 12.6445 52.623 14.6005C53.001 15.2225 53.3439 15.8665 53.3189 16.6325Z" fill="#344E41"/>
<path d="M61.5629 30.7495C61.5049 31.6535 61.3759 32.0755 60.8829 32.2685C60.4049 32.4565 59.9699 32.3085 59.6419 31.9705C59.3959 31.7175 59.1999 31.3915 59.0609 31.0635C58.1039 28.8045 57.1769 26.5325 56.2189 24.2735C55.9739 23.6955 56.0109 23.2095 56.5279 22.8335C57.0459 22.4565 57.6869 22.4995 57.9979 22.9745C59.6509 25.4975 60.6039 28.3365 61.5629 30.7495Z" fill="#344E41"/>
<path d="M68.425 16.7814C68.34 17.0424 68.2149 17.4754 68.0599 17.8984C67.3129 19.9394 66.5459 21.9744 65.8109 24.0204C65.5119 24.8514 65.136 25.6114 64.092 25.2464C63.237 24.9474 63.1709 24.1574 63.4429 23.4224C64.3529 20.9594 65.2919 18.5074 66.2679 16.0704C66.4769 15.5494 66.971 15.1874 67.584 15.3594C68.162 15.5204 68.446 15.9804 68.425 16.7814Z" fill="#344E41"/>
<path d="M115.15 65.0275C114.869 65.8815 114.636 66.7565 114.297 67.5865C113.582 69.3415 113.083 71.1995 112.014 72.7895C111.662 73.3125 111.1 73.7395 110.388 73.3915C109.657 73.0335 109.703 72.3895 109.958 71.7575C110.94 69.3265 111.934 66.9015 112.935 64.4785C113.17 63.9095 113.65 63.6225 114.235 63.7575C114.832 63.8945 115.12 64.3545 115.15 65.0275Z" fill="#344E41"/>
<path d="M82.2649 1.78645C82.2879 2.39545 81.9769 2.82745 81.4929 3.12945C79.5569 4.33845 77.9079 5.87945 76.3409 7.51845C75.7199 8.16845 74.9649 8.56945 74.2359 7.82045C73.6099 7.17745 74.0099 6.45445 74.5319 5.90145C76.2789 4.05145 78.1699 2.36145 80.4119 1.13345C81.4199 0.58145 82.2359 0.93445 82.2649 1.78645Z" fill="#344E41"/>
<path d="M19.7569 89.6674C20.2099 89.6764 20.5509 89.9884 20.8339 90.3364C22.2029 92.0244 23.4289 93.8144 24.4979 95.7054C24.8789 96.3794 24.9779 97.1484 24.2009 97.6174C23.4189 98.0904 22.8259 97.6554 22.4049 96.9674C21.2759 95.1194 20.2359 93.2164 18.7899 91.5744C18.4149 91.1494 18.4279 90.5604 18.7699 90.0584C18.9899 89.7384 19.3199 89.6134 19.7569 89.6674Z" fill="#344E41"/>
</svg>
