<svg width="139" height="150" viewBox="0 0 139 150" fill="none" xmlns="http://www.w3.org/2000/svg">
<path d="M52.6513 51.2471C50.9178 45.6463 49.7635 40.1299 49.1558 34.489C48.6366 29.6716 49.0909 24.9549 50.1784 20.266C51.6926 13.7402 55.7984 10.0045 62.3585 8.87106C66.6379 8.13179 70.6998 8.79046 74.5902 10.6763C80.5532 13.5672 85.1185 18.0144 88.6827 23.5104C94.7452 32.8587 98.4565 43.2174 101.368 53.8802C104.275 64.5246 106.026 75.3685 107.34 86.3363C108.692 97.6254 108.904 108.877 108.288 120.185C108.173 122.314 107.426 122.837 105.53 121.894C104.463 121.363 103.355 121.07 102.227 120.763C100.441 120.278 98.6285 119.834 96.905 119.173C80.7769 112.986 64.8767 106.259 49.905 97.5922C38.2273 90.8326 27.457 82.7818 17.9132 73.1845C14.9412 70.1955 12.37 66.888 10.8322 62.8964C8.45328 56.7248 9.90841 51.886 15.358 48.1241C20.5357 44.5499 26.3303 43.7509 32.4135 44.6824C38.4423 45.6043 44.0698 47.8143 49.6078 50.2839C50.4712 50.6678 51.2359 51.3716 52.6513 51.2471ZM103.236 117.489C104.007 116.564 103.83 115.542 103.917 114.597C104.43 109.031 104.017 103.511 103.201 97.9922C100.346 78.6763 96.6845 59.5869 89.3227 41.3508C85.3236 31.4452 79.3887 23.1346 71.323 16.1825C67.6543 13.0201 63.2676 14.7842 61.5038 18.1252C60.2596 20.4806 59.3424 22.916 59.0043 25.5635C58.3316 30.836 58.5411 36.053 59.7554 41.248C61.0959 46.9829 63.3948 52.3351 65.807 57.6738C66.846 59.9728 68.209 61.7616 70.2258 63.2769C75.2641 67.0622 79.349 71.76 82.6624 77.1185C83.7924 78.9465 84.8959 80.8149 85.1016 83.0123C85.3344 85.5118 83.8975 86.8894 81.4058 86.6447C78.787 86.3877 76.617 85.1734 74.5843 83.5652C66.8863 77.4747 60.8154 70.0758 56.6179 61.1969C55.9396 59.7615 55.0643 58.8521 53.6106 58.2739C45.579 55.082 37.22 53.2428 28.676 52.1759C27.4357 52.0211 26.1355 52.1014 24.8915 52.2785C21.7367 52.7279 20.5059 54.3126 20.6592 57.472C20.7829 60.0271 22.0073 62.1289 23.4338 64.1236C27.0354 69.1611 31.4111 73.4536 36.3649 77.1385C52.8033 89.3685 69.5676 101.08 88.246 109.757C90.8048 110.945 93.2053 112.469 95.71 113.778C98.1938 115.076 100.588 116.564 103.236 117.489ZM63.6238 12.552C60.8306 12.0386 59.1144 13.1136 57.6873 14.8408C55.7429 17.1952 55.0181 19.9999 54.8129 22.9785C54.0157 34.5233 56.6996 45.4274 60.904 56.0511C61.2422 56.9053 61.7988 57.4718 62.9954 57.4804C62.4498 56.205 61.9585 55.0478 61.4608 53.8935C57.7886 45.3739 55.3679 36.6215 56.3768 27.2029C56.9809 21.5646 58.3513 16.3135 63.6238 12.552ZM99.0406 56.1129C98.6997 52.7325 97.5524 49.528 96.5135 46.2965C94.0873 38.7495 90.9975 31.4904 86.6677 24.8315C83.439 19.8663 79.3435 15.7709 73.7889 13.3519C76.6815 15.254 79.3914 17.3763 81.6945 19.9711C86.7566 25.6725 90.0551 32.3865 92.8322 39.4005C95.012 44.9069 97.1884 50.4155 99.0406 56.1129ZM51.9516 26.2826C51.3531 27.3403 51.3944 28.4228 51.383 29.4818C51.342 33.391 51.9335 37.2387 52.6013 41.0761C53.2373 44.728 54.2869 48.273 55.4185 51.7923C55.7037 52.6786 55.8036 53.8992 57.6737 53.9788C53.8898 44.9422 52.2943 35.7363 51.9516 26.2826ZM32.5892 49.8851C29.2137 48.65 25.6745 48.4515 22.1154 48.9346C17.5448 49.5547 15.4038 54.7251 18.0516 58.7077C18.1072 58.3796 18.1885 58.1015 18.1969 57.822C18.3594 52.3212 20.7184 49.9007 26.1594 49.6399C28.2984 49.5384 30.4003 49.9129 32.5892 49.8851ZM74.6828 79.9968C72.0774 75.9107 69.6574 71.7267 67.5901 67.3466C67.0695 66.2422 66.2946 65.5673 64.5891 65.0885C67.7001 70.6643 69.675 76.3388 74.6828 79.9968ZM73.1431 71.3786C73.43 74.6451 78.0515 80.7221 81.268 81.8943C79.8375 77.2455 76.4363 74.4158 73.1431 71.3786ZM27.1115 75.4442C22.5872 70.5386 18.44 65.4286 15.0447 59.7317C17.6058 66.1194 22.0837 71.0377 27.1115 75.4442ZM59.9411 61.7653C60.2107 63.0267 60.6755 63.6877 61.4291 64.3381C61.2439 63.4006 60.898 62.7049 59.9411 61.7653ZM40.3512 86.7874C40.4823 87.7555 41.308 87.6798 41.9321 88.2842C41.6536 87.2471 40.915 87.2135 40.3512 86.7874Z" fill="#344E41"/>
</svg>
