<svg width="35" height="39" viewBox="0 0 38 39" fill="none" xmlns="http://www.w3.org/2000/svg">
  <path
    d="M33.0053 34.6124C28.5846 35.0453 24.1831 34.584 20.0764 32.8494C19.2744 32.5106 18.5018 32.1194 17.7464 31.701C22.7261 28.806 27.2217 25.232 30.566 20.4641C33.6174 16.114 36.1347 10.0514 34.4693 4.72444C33.8099 2.615 32.273 0.580661 29.9763 0.106779C27.182 -0.469325 24.6135 1.39212 22.6564 3.13873C19.9255 5.57566 17.8935 8.58428 16.2083 11.7866C16.0868 10.9878 15.9256 10.1946 15.7152 9.41089C15.0871 7.06798 14.0088 4.61592 11.9794 3.12486C10.0153 1.68176 7.33039 1.51075 5.33813 3.00433C3.58954 4.31492 2.86364 6.56444 2.59118 8.62592C1.95161 13.4657 3.34396 18.715 5.62339 22.9768C7.43401 26.3615 9.95712 29.283 13.0111 31.5773C9.01119 33.6293 4.80601 35.304 0.654555 37.0166C0.064231 37.2601 -0.197345 37.9498 0.16785 38.4811C0.569501 39.0654 1.42461 39.0976 2.02325 38.8654C6.43309 37.1516 10.9683 35.3166 15.2464 33.0728C15.6154 33.2955 15.9812 33.5233 16.3624 33.729C21.4598 36.484 27.6157 37.6898 33.3673 36.7225C34.8562 36.4714 34.4584 34.4705 33.0053 34.6124ZM9.88613 24.7146C7.31634 21.0983 5.72893 16.769 5.42065 12.3583C5.2857 10.435 5.29018 8.44988 5.99115 6.62376C6.46571 5.38826 7.54402 3.80634 9.10777 4.29221C11.1979 4.94151 12.2327 7.6056 12.7885 9.462C13.6257 12.2599 13.7888 15.1915 13.3788 18.0752C13.288 18.7131 14.1086 19.1365 14.6209 19.1857C15.263 19.2476 15.9307 18.9971 16.1923 18.3762C17.992 14.1074 19.9856 9.81915 23.099 6.30762C23.8339 5.47849 24.6391 4.71435 25.507 4.02088C26.3455 3.35076 27.3016 2.57841 28.3684 2.31339C30.2174 1.85402 31.3252 3.98744 31.7556 5.42297C32.4508 7.74126 32.085 10.4035 31.4032 12.6807C30.6895 15.0653 29.5369 17.2889 28.1049 19.329C25.3241 23.291 21.5615 26.4694 17.4676 29.0559C16.805 29.4742 16.1328 29.8762 15.4529 30.2642C13.3097 28.7391 11.4224 26.8757 9.88613 24.7146Z"
    fill="#344E41"
  />
</svg>
