<svg width="104" height="94" viewBox="0 0 104 94" fill="none" xmlns="http://www.w3.org/2000/svg">
<path d="M45.6772 22.8959C46.4392 20.4929 47.3082 18.1168 47.9412 15.6808C49.1922 10.8588 52.0612 7.14184 55.6022 3.80784C57.7482 1.78784 60.2702 1.48185 62.9572 2.01985C65.0902 2.44685 66.1682 4.04985 66.8242 6.01585C68.2002 10.1378 67.8052 14.3078 67.1462 18.4678C66.7952 20.6838 66.1312 22.8328 65.2352 24.9018C60.9502 34.7958 55.5802 44.0508 48.9352 52.5478C47.7972 54.0038 46.4792 55.3208 45.2312 56.6898C44.7482 57.2188 44.1802 57.5959 43.4272 57.2409C42.7412 56.9179 42.3092 56.3198 42.4592 55.5968C42.9662 53.1658 41.7282 51.2358 40.7302 49.2478C38.9782 45.7558 36.8912 42.4758 34.6132 39.2908C30.3532 33.3358 26.4382 27.1599 23.6882 20.3269C22.0272 16.1989 21.1422 11.9378 21.5732 7.46284C21.6292 6.88084 21.6422 6.29185 21.7332 5.71485C22.5812 0.345852 26.4822 -1.54317 31.0642 1.35383C35.6232 4.23683 38.9002 8.33783 41.3472 13.1038C42.9502 16.2298 43.9122 19.6209 45.6772 22.8959ZM40.8782 19.5648C40.7332 16.7498 39.2592 14.5149 37.7572 12.2929C38.7392 14.7359 39.4562 17.2978 40.9312 19.5228C41.3712 22.5198 43.1332 27.7858 44.4882 29.7548C43.9712 26.7908 42.9552 24.4138 42.1492 21.9838C41.8652 21.1268 41.9262 20.0378 40.8782 19.5648ZM40.0912 33.3338C39.5802 28.9378 36.7812 21.4288 34.7992 19.1608C36.5512 24.2958 37.5902 29.1028 40.0912 33.3338ZM49.9502 28.9748C50.9472 25.7968 52.2282 22.6228 52.4022 19.1898C50.9872 22.2808 50.3182 25.5588 49.9502 28.9748ZM30.2772 14.3938C29.9242 12.6208 29.5522 10.9388 28.1832 9.36485C27.9842 11.6588 28.7162 13.2338 30.2772 14.3938ZM62.0832 7.41184C61.9462 6.01484 61.2492 5.87485 59.7902 6.34385C60.7192 6.75885 61.0952 7.43584 62.0832 7.41184ZM64.6382 17.6938C64.7122 17.5218 64.8512 17.3549 64.8362 17.2019C64.8082 16.9099 65.0752 16.5078 64.5872 16.3468C64.4532 16.7988 64.2902 17.2508 64.6382 17.6938Z" fill="#344E41"/>
<path d="M80.7202 52.2788C82.0172 52.0188 82.5692 51.2768 83.2652 50.7768C86.3332 48.5738 89.7562 47.2448 93.4452 46.5668C97.1272 45.8908 99.9142 47.2538 101.945 50.3388C105.078 55.0988 104.32 61.7018 100.119 65.9208C98.3152 67.7328 96.1782 69.1018 93.9762 70.3658C87.2772 74.2118 80.1832 77.1708 72.9212 79.7638C68.1542 81.4658 63.2642 82.8358 58.6682 85.0058C57.0892 85.7518 55.3922 86.2818 54.2092 87.6998C53.8262 88.1588 53.2922 88.4488 52.6562 88.1588C51.9142 87.8208 51.7712 87.1798 51.8632 86.4488C51.9482 85.7718 51.9962 85.0838 52.1522 84.4228C54.6822 73.6958 57.4792 63.0538 62.2192 53.0348C64.9122 47.3438 68.1832 42.0758 73.1402 38.0328C74.3512 37.0458 75.5792 36.0798 76.9822 35.3808C80.4522 33.6528 83.0292 35.1308 83.2322 38.9708C83.3622 41.4378 82.7412 43.7968 82.1842 46.1748C81.7252 48.1398 80.8112 50.0078 80.7202 52.2788ZM82.1622 63.4958C82.2742 63.6258 82.3862 63.7558 82.4972 63.8868C87.3442 61.0908 92.1882 58.2878 97.0442 55.5078C97.6372 55.1678 97.8262 54.6928 97.7962 54.0738C97.7632 53.3778 97.6852 52.6368 96.8952 52.4178C95.9182 52.1468 94.9712 52.2288 94.2802 53.1388C92.2582 55.8008 89.5652 57.7278 86.9852 59.7738C85.3952 61.0358 83.7712 62.2568 82.1622 63.4958ZM92.6042 66.2768C94.6332 65.8238 96.1222 64.8048 96.6012 62.7318C95.2682 63.9138 93.9362 65.0958 92.6042 66.2768ZM76.9522 46.2208C76.0862 46.9228 75.4612 47.7728 75.0432 49.0998C76.5812 48.4378 76.9112 47.4218 76.9522 46.2208ZM69.5622 49.3168C68.6422 50.3188 68.1412 51.0098 68.0862 52.2058C68.8772 51.3568 69.3652 50.6868 69.5622 49.3168Z" fill="#344E41"/>
<path d="M19.8512 59.1488C19.9142 57.0988 20.0812 55.0858 20.4982 53.1138C21.1122 50.2048 22.1402 47.5028 24.4982 45.4988C27.1962 43.2058 29.8172 43.3908 32.1322 46.1088C34.3822 48.7488 35.1802 51.9938 35.5422 55.2978C36.4882 63.9498 36.4802 72.6108 35.3102 81.2548C34.9702 83.7648 34.7352 86.2898 34.3692 88.7968C34.2022 89.9428 34.1052 91.1318 33.5402 92.1848C32.5602 94.0128 31.8702 94.2278 30.0432 93.3018C29.7832 93.1698 29.5212 93.0338 29.2812 92.8698C20.1352 86.6098 11.5962 79.7318 5.78319 70.0338C3.15519 65.6498 1.09119 61.0598 0.256188 55.9798C-0.0778123 53.9418 -0.146812 51.9108 0.426188 49.8948C1.31019 46.7878 3.41819 45.6448 6.44619 46.7178C8.50219 47.4458 10.1982 48.7738 11.7942 50.2188C14.2632 52.4548 16.3142 55.0558 18.2712 57.7378C18.6472 58.2528 18.8342 58.9948 19.8512 59.1488ZM19.9902 77.0248C17.8322 71.7098 11.8662 62.4018 9.53119 60.8208C12.0652 67.2998 16.1832 72.0718 19.9902 77.0248ZM8.58019 69.6968C10.8372 74.5668 14.4492 78.9248 17.4482 80.6588C14.2512 76.7068 11.4152 73.2018 8.58019 69.6968ZM29.4602 50.4628C28.9352 53.2748 29.3222 57.3668 30.4162 61.5248C30.3612 57.6318 30.5312 54.3188 29.4602 50.4628ZM25.4992 74.7468C25.8232 72.7278 25.7542 70.7348 25.2302 68.7718C24.4422 70.8218 25.2622 72.7648 25.4992 74.7468ZM6.68719 53.7518C6.31019 54.7858 6.91919 55.6228 7.20019 56.5018C7.32919 56.9028 7.79819 56.9818 8.18419 56.8578C8.64219 56.7108 8.68919 56.3298 8.49819 55.9428C8.07519 55.0818 7.67319 54.1938 6.68719 53.7518ZM24.3352 58.5888C24.3152 58.6148 24.2952 58.6408 24.2742 58.6658C24.2742 59.7758 24.2742 60.8868 24.2742 61.9968C24.2942 61.9948 24.3152 61.9928 24.3352 61.9908C24.3352 60.8568 24.3352 59.7228 24.3352 58.5888ZM9.60019 52.5158C9.04419 50.7298 8.85119 50.5698 6.29919 50.0438C7.35219 50.8338 8.40619 51.6218 9.60019 52.5158ZM26.6912 47.2208C25.6812 47.6998 24.9512 47.9918 25.2762 48.9818C25.3142 49.0988 25.6152 49.2368 25.7472 49.1988C26.5642 48.9688 26.4182 48.2118 26.6912 47.2208Z" fill="#344E41"/>
</svg>
