<svg width="98" height="69" viewBox="0 0 98 69" fill="none" xmlns="http://www.w3.org/2000/svg">
<path d="M96.1218 26.1057C94.7308 22.0397 91.5558 20.3687 87.1848 21.3947C82.3868 22.5207 79.6128 25.9767 77.7318 28.8617C77.2108 29.6627 76.7328 30.4977 76.1798 31.4657C75.9388 31.8867 75.6828 32.3357 75.3998 32.8207C74.0978 28.2287 72.0258 24.7047 68.8958 21.7477C68.3878 21.2687 68.3888 20.6427 68.3888 19.9797C68.3888 19.8637 68.3888 19.7497 68.3868 19.6357C68.3728 19.0147 68.3648 18.3937 68.3588 17.7717C68.3428 16.3667 68.3268 14.9137 68.2198 13.4887C68.0098 10.6917 67.6578 7.71268 66.5058 4.87968C65.5508 2.52868 63.9308 0.893649 61.9458 0.276649C59.9618 -0.342351 57.7018 0.0856683 55.5858 1.47767C54.1028 2.45267 52.9108 3.73466 51.7198 5.07166C48.5578 8.61966 46.1888 12.9697 44.4778 18.3677C44.4148 18.5667 44.3658 18.7697 44.3148 18.9847C44.1368 19.7247 43.9528 20.4897 43.1718 21.0197C41.5608 17.8317 39.9228 15.1347 38.1648 12.7787C35.4748 9.17466 32.6838 6.90365 29.3818 5.63065C26.0508 4.34365 23.0398 5.17965 20.9068 7.97965C18.8138 10.7287 17.6718 13.7417 17.5138 16.9367C17.2628 21.9937 18.4668 26.7717 21.1948 31.5417C22.8188 34.3827 22.8118 34.8427 20.7458 37.9097L20.5508 37.5797C20.3438 37.2297 20.1438 36.8907 19.9458 36.5517C18.4378 33.9647 16.5608 30.7457 13.8078 28.3667C11.3418 26.2367 8.99281 25.1707 6.41781 25.0107C3.31081 24.8177 1.28081 26.2367 0.389806 29.2267C-0.217194 31.2597 -0.00419644 33.3257 0.283804 35.0787C0.919804 38.9487 2.30281 42.7127 4.51081 46.5837C8.16681 52.9977 12.8448 58.7917 18.8098 64.3007C20.2178 65.6007 21.8298 66.7287 23.2308 67.6847C23.9748 68.1927 24.5708 68.4537 25.1228 68.4527C25.8158 68.4527 26.4388 68.0427 27.1968 67.1957C28.2048 66.0707 29.0678 64.7987 29.8308 63.6777C30.3348 62.9357 30.8488 62.2007 31.3638 61.4637C33.2288 58.7967 35.1568 56.0397 36.6498 52.8637C40.5178 57.2457 44.5678 60.8767 48.1458 64.0847C49.3718 65.1847 49.9868 65.7387 50.5538 65.6567C51.1138 65.5767 51.5488 64.8777 52.3378 63.6097C54.3138 60.4337 56.2978 57.2637 58.2778 54.1007L60.6208 50.3567C60.6488 50.3637 60.6748 50.3687 60.6988 50.3727C60.7388 50.3817 60.7878 50.3907 60.7958 50.3947L60.8938 50.5067C61.1108 50.7537 61.3348 51.0097 61.5188 51.2817C64.8058 56.1207 68.8698 60.2427 73.5988 63.5287C75.4088 64.7867 75.6378 64.7597 77.1098 63.1527C77.9438 62.2407 78.7688 61.3206 79.5938 60.4016C81.0858 58.7366 82.6288 57.0157 84.2028 55.3787C88.6148 50.7847 92.0958 46.2267 94.8438 41.4427C97.5558 36.7157 97.9868 31.5547 96.1218 26.1057ZM22.9808 46.8807C23.8378 46.6747 24.2968 46.0237 24.3098 45.0017C24.3168 44.3897 24.3158 43.7777 24.3138 43.1657L24.3128 42.3667L24.3118 42.3547C23.8348 37.3247 26.0058 33.3056 30.9498 30.0696C32.0308 29.3626 33.3058 29.1227 34.5418 29.4027C35.8968 29.7077 37.0768 30.5807 37.8628 31.8647C38.9638 33.6637 39.3568 35.6217 39.0288 37.6837C38.7398 39.5057 38.2558 41.2997 37.5928 43.0167C35.0278 49.6517 31.2388 56.3357 25.6688 64.0517C25.1968 64.7047 24.7728 65.0317 24.3358 65.0767C23.9358 65.1187 23.5018 64.9206 23.0098 64.4746C22.8608 64.3396 22.6958 64.2227 22.5368 64.1087C22.3758 63.9937 22.2228 63.8857 22.0848 63.7597C13.8428 56.2707 8.18781 48.3337 4.79781 39.4947C3.94781 37.2777 3.43482 35.0917 3.27482 32.9997C3.15882 31.4817 3.01481 29.5927 4.60581 28.6077C5.11181 28.2947 5.62381 28.1657 6.14681 28.1657C7.11981 28.1657 8.13181 28.6117 9.21381 29.1497C11.2008 30.1347 12.8818 31.6757 14.5068 33.9987C16.6968 37.1317 18.3618 40.4957 20.0148 43.9537L20.1808 44.3057C20.4148 44.7997 20.6558 45.3127 20.9408 45.7907C21.4978 46.7217 22.1648 47.0807 22.9808 46.8807ZM39.2038 47.4247C40.6958 44.7917 41.7048 41.7087 42.2018 38.2607C42.7378 34.5467 41.8798 31.3936 39.6498 28.8886C37.9668 26.9986 35.7928 26.0287 33.5558 26.0287C31.9088 26.0287 30.2268 26.5547 28.6838 27.6277C27.3888 28.5277 26.2428 29.6407 25.1348 30.7177C24.9008 30.9447 24.6668 31.1717 24.4318 31.3967C19.7488 25.5247 18.9218 16.7917 22.5168 11.0257C24.3498 8.08567 26.1728 7.57367 29.2428 9.12867C31.5748 10.3107 33.6228 12.0857 35.3308 14.4037C38.0858 18.1427 40.1398 21.8937 41.6118 25.8707C41.6618 26.0067 41.7138 26.1417 41.7658 26.2777C41.8538 26.5047 41.9408 26.7337 42.0208 26.9637C42.0578 27.0707 42.0938 27.1797 42.1308 27.2907C42.4808 28.3487 42.8798 29.5457 44.3568 29.2877C45.6648 29.0607 45.7898 27.9157 45.8998 26.9047C45.9198 26.7217 45.9398 26.5387 45.9658 26.3607C47.1748 18.1967 50.0678 11.6817 54.8098 6.44065C55.3828 5.80765 55.9308 5.28567 56.4848 4.84367C58.1998 3.48067 59.7098 2.98366 60.9688 3.37266C62.2138 3.75366 63.1708 4.98066 63.8148 7.01966C64.4858 9.14766 64.8888 11.4867 65.0468 14.1747C65.0988 15.0527 65.1108 15.9497 65.1218 16.8167C65.1278 17.2987 65.1338 17.7807 65.1468 18.2607C65.1578 18.6747 65.0868 18.9487 64.9228 19.1197C64.7388 19.3127 64.4098 19.4037 63.8558 19.4157C58.0878 19.5367 55.0728 22.3047 54.3658 28.1247C53.9658 31.4137 54.2818 34.6357 55.3048 37.7007C55.4198 38.0437 55.5288 38.3927 55.6388 38.7417C56.0578 40.0777 56.4908 41.4567 57.2438 42.6077C58.9868 45.2687 58.8788 47.8877 56.8908 51.0947C55.4188 53.4717 53.9788 55.9247 52.5878 58.2957C52.0308 59.2437 51.4738 60.1927 50.9148 61.1397C50.6608 61.5697 50.3768 61.9747 50.0288 62.0237C49.7748 62.0597 49.4658 61.9127 49.0988 61.5687C46.0648 58.7267 42.6258 55.5077 39.7028 51.9917C38.3998 50.4227 38.2548 49.0997 39.2038 47.4247ZM58.3318 25.7657C59.0978 24.1547 60.1698 23.0997 61.4298 22.7147C62.6908 22.3317 64.0978 22.5917 65.6148 23.4897C68.3188 25.0917 69.8408 27.7497 70.8648 29.8867C71.6488 31.5227 72.1298 33.2976 72.5948 35.0136C72.7578 35.6126 72.9198 36.2127 73.0948 36.8077C73.1438 36.9747 73.1898 37.1427 73.2358 37.3117C73.3948 37.8997 73.5598 38.5077 73.8628 39.0317C74.2218 39.6527 74.7698 40.0077 75.3668 40.0077C75.3688 40.0077 75.3718 40.0077 75.3748 40.0077C75.9738 40.0047 76.5208 39.6447 76.8738 39.0187C77.1298 38.5647 77.2688 38.0456 77.4028 37.5436C77.4688 37.2936 77.5378 37.0347 77.6208 36.7907C78.9838 32.7377 80.7158 29.7217 83.0718 27.2987C84.4308 25.8997 86.1508 24.9707 88.3288 24.4567C90.5898 23.9177 92.0328 24.6596 92.8688 26.7766C94.6278 31.2326 94.3758 35.5517 92.1188 39.6137C89.9698 43.4807 87.2328 47.2577 83.7508 51.1597C81.6168 53.5517 79.3758 55.9206 77.2088 58.2116L75.7938 59.7087C74.4688 61.1167 74.4678 61.1147 72.9278 59.8967C70.5248 57.9957 68.3428 55.7547 66.4428 53.2337C61.9728 47.3026 58.9778 40.3507 57.5428 32.5707C57.4718 32.1857 57.4528 31.7877 57.4358 31.4027C57.4278 31.2287 57.4198 31.0567 57.4068 30.8907C57.4698 29.2677 57.5418 27.4277 58.3318 25.7657Z" fill="#344E41"/>
</svg>
