<svg width="66" height="74" viewBox="0 0 66 74" fill="none" xmlns="http://www.w3.org/2000/svg">
<path d="M32.0625 29.3585C32.3942 28.6391 32.1034 28.0536 32.0071 27.48C30.8608 20.6443 32.1468 14.0955 34.3452 7.66257C34.8752 6.11147 35.7066 4.69187 36.6722 3.36156C38.3247 1.08443 40.5806 -0.00291623 43.3716 9.90431e-05C46.2868 0.0031973 49.0503 0.719591 51.5085 2.24689C57.101 5.72068 61.4708 10.3336 63.9041 16.5417C65.761 21.2792 65.5395 26.1928 64.4778 31.0376C62.98 37.8704 60.3397 44.3247 57.4719 50.684C57.1483 51.4014 56.8717 52.1411 56.5311 52.8507C53.7337 58.6848 53.7921 64.6599 55.6375 70.7244C56.0413 72.0521 55.7425 72.8809 54.6957 73.2674C53.711 73.6307 52.8775 73.1626 52.3292 71.8841C51.2501 69.3653 49.8101 67.0467 48.2228 64.8373C46.6078 62.5894 44.3994 61.0237 41.9336 59.7436C35.4225 56.3649 28.7045 53.446 21.9766 50.5419C14.7275 47.4123 8.55195 42.8563 3.69804 36.5801C2.16604 34.5993 0.884696 32.4881 0.289315 30.0206C-0.450162 26.9533 0.21081 24.2852 2.4698 22.0161C5.61491 18.8566 9.34758 17.636 13.7369 18.4527C17.066 19.0726 20.0752 20.452 22.881 22.3124C25.6114 24.1227 28.1087 26.2359 30.6588 28.2806C31.1082 28.6412 31.5721 28.9829 32.0625 29.3585ZM50.7994 62.9202C50.8434 62.5033 50.8945 62.2667 50.8885 62.032C50.7972 58.3786 51.765 54.9692 53.2421 51.671C54.1578 49.627 55.0796 47.5844 55.9422 45.5175C57.9968 40.5958 59.9365 35.6211 61.0546 30.3955C62.0295 25.8396 62.2555 21.2445 60.2686 16.8504C57.9741 11.7763 54.2086 7.99951 49.5074 5.12364C48.0474 4.23034 46.4046 3.78872 44.7033 3.55699C42.1675 3.21086 40.1957 3.95494 38.8999 6.28352C38.1005 7.71998 37.3791 9.17956 36.9614 10.7707C36.5775 12.2346 36.2179 13.7062 35.8909 15.1835C34.548 21.251 34.6655 27.2002 37.3845 32.929C37.4621 33.0926 37.5176 33.2666 37.5731 33.4393C37.8482 34.3002 37.8655 35.1267 37.1159 35.773C36.3709 36.415 35.5411 36.3333 34.745 35.8934C34.1652 35.5727 33.6057 35.2005 33.0833 34.7912C31.9407 33.8955 30.8265 32.9629 29.7028 32.0433C26.753 29.6288 23.8513 27.151 20.6624 25.0452C18.2606 23.4589 15.6777 22.303 12.8207 21.8323C9.48182 21.2822 6.75942 22.3862 4.55828 24.918C3.70576 25.8985 3.39643 27.0054 3.52642 28.2771C3.68494 29.8242 4.31013 31.1911 5.11482 32.4875C6.72356 35.0792 8.75706 37.3199 10.9813 39.3831C14.9785 43.0904 19.6168 45.7778 24.6145 47.9061C30.9076 50.5861 37.2099 53.2452 43.187 56.6118C45.6473 57.9977 47.8472 59.6368 49.6407 61.8221C49.9386 62.1846 50.1522 62.6463 50.7994 62.9202Z" fill="#344E41"/>
</svg>
