<svg width="70" height="111" viewBox="0 0 70 111" fill="none" xmlns="http://www.w3.org/2000/svg">
<path d="M27.6458 70.8217C28.3218 69.5857 28.7968 68.6997 29.2878 67.8217C31.6748 63.5547 34.7218 59.8587 38.6968 56.9697C41.0488 55.2597 43.6228 54.1027 46.5328 53.7177C52.0208 52.9907 56.3458 56.0637 57.3038 61.4987C58.0108 65.5107 57.5538 69.4647 56.3398 73.3227C54.1638 80.2427 50.4138 86.0947 44.8708 90.8837C38.2248 96.6277 31.0768 101.668 23.8458 106.612C22.4698 107.553 21.0498 108.424 19.7278 109.45C18.1398 110.682 16.5268 110.227 15.6428 108.415C12.9018 102.795 10.2068 97.1517 7.39477 91.5667C3.57577 83.9827 1.15377 75.9977 0.228768 67.5607C-0.136232 64.2277 -0.0622311 60.8917 0.434769 57.5777C0.765769 55.3747 1.54577 53.3137 2.77077 51.4427C5.02777 47.9937 8.75677 46.5987 12.7318 47.7007C14.6678 48.2377 16.3338 49.2427 17.7818 50.6257C19.7448 52.4987 21.2408 54.7147 22.5148 57.0887C24.4418 60.6767 25.7418 64.5097 26.8888 68.3997C27.0908 69.0767 27.3108 69.7477 27.6458 70.8217ZM4.96677 63.1627C4.97977 65.0517 5.22176 66.8257 5.54076 68.5817C7.02976 76.7657 9.78876 84.5517 13.0138 92.1887C14.5678 95.8687 16.6668 99.2787 18.3258 102.907C18.8808 104.121 18.9348 104.135 20.1088 103.343C27.4618 98.3777 34.7308 93.3137 41.4838 87.5187C46.3888 83.3097 49.7518 78.2047 51.7058 72.1117C52.7168 68.9577 53.1858 65.7327 52.6288 62.4267C52.1568 59.6277 50.4608 58.2787 47.6398 58.4367C45.8808 58.5357 44.2718 59.1177 42.7628 60.0177C39.3608 62.0487 36.7938 64.9127 34.6468 68.1807C32.8738 70.8787 31.5078 73.7847 30.4068 76.8187C30.1028 77.6567 29.8108 78.5097 29.2848 79.2427C27.9618 81.0877 25.6318 80.8687 24.7148 78.8047C24.4998 78.3207 24.3878 77.7857 24.2638 77.2667C23.2828 73.1547 22.2278 69.0647 20.7898 65.0827C19.6328 61.8787 18.2588 58.7857 16.2118 56.0337C15.3178 54.8317 14.3418 53.6977 13.0088 52.9687C10.1418 51.4017 7.14676 51.6977 5.94376 55.8667C5.26376 58.2217 4.66077 60.7137 4.96677 63.1627Z" fill="#344E41"/>
<path d="M67.7907 6.88069C64.5967 2.55269 58.6417 2.7497 54.4777 5.4597C52.3297 6.8577 50.9177 8.8067 49.9447 11.0067C49.4067 8.9927 48.6827 7.04668 47.4737 5.28068C44.7277 1.26868 39.8087 -1.22531 35.0317 0.617689C30.1707 2.49269 28.1547 7.68267 28.0707 12.5507C27.9757 18.0207 29.6697 23.3727 31.8457 28.3287C34.4927 34.3567 37.6187 40.2347 40.9077 45.9357C43.6107 50.6097 57.2127 36.7277 59.0057 34.8487C62.7567 30.9197 66.2697 26.5237 68.2827 21.4257C70.0487 16.9557 70.8367 11.0087 67.7907 6.88069ZM63.3277 21.7537C61.4077 25.9087 58.3537 29.5617 55.2157 32.8507C51.7327 36.5017 47.8007 39.7167 43.6107 42.5267C41.6937 38.6917 39.7227 34.8837 37.8627 31.0207C35.7857 26.7097 33.8577 22.2277 33.0157 17.4897C32.3187 13.5657 32.0777 8.35769 35.0597 5.24769C36.1337 4.12669 37.6157 3.36069 39.1847 3.70369C40.8577 4.06869 42.2237 5.3377 43.2207 6.6707C46.3397 10.8437 46.1857 16.5837 47.7757 21.3767C48.4637 23.4507 51.9947 22.9907 52.2497 20.8927C52.7327 16.9257 53.2267 11.9627 56.3457 9.07469C58.7627 6.83769 62.5977 6.09667 64.3477 9.49467C66.2917 13.2717 64.9987 18.1367 63.3277 21.7537Z" fill="#344E41"/>
</svg>
