<svg width="64" height="70" viewBox="0 0 64 70" fill="none" xmlns="http://www.w3.org/2000/svg">
<path d="M24.4701 26.3623C24.9068 25.7433 24.5876 25.2402 24.4521 24.7291C23.7402 22.0297 22.9939 19.3124 23.0337 16.5106C23.0852 12.867 23.7762 9.38098 26.9306 6.98847C28.4801 5.81257 30.1955 4.81469 32.0436 4.27165C36.5905 2.93664 38.5191 4.05711 41.0431 8.19918C43.7451 12.6317 45.1579 17.5641 45.5338 22.7142C45.9005 27.7276 46.1491 32.7573 46.0457 37.7916C46.0216 38.949 45.8908 40.1144 45.6986 41.258C45.1223 44.6957 44.5356 48.1264 44.2874 51.6128C44.0898 54.401 43.6355 57.1557 42.3092 59.6861C42.0553 60.1696 41.854 60.684 41.3982 61.0132C39.1206 62.656 38.4825 62.303 37.5243 60.2677C35.3185 55.582 31.8953 51.7531 27.8427 48.5619C25.049 46.362 22.0253 44.4564 19.1643 42.3387C14.1077 38.5958 9.29232 34.5777 5.56254 29.4398C4.1474 27.4908 2.92324 25.394 2.45582 22.9974C1.80943 19.6836 2.70456 17.998 5.55628 16.5644C8.4747 15.0965 11.2364 15.3422 13.9336 17.0339C16.0438 18.358 17.8864 20.0223 19.6883 21.7252C21.2997 23.2461 22.8718 24.8084 24.4701 26.3623ZM31.9851 12.0945C31.1375 14.0978 33.0083 15.472 33.1805 17.2657C33.6291 15.6327 33.6291 15.6327 31.9851 12.0945ZM38.6211 17.373C38.5283 15.407 38.0217 14.152 37.3438 12.6234C36.7643 14.5048 37.3706 15.7533 38.6211 17.373ZM31.2877 37.0945C31.1952 36.5152 31.2047 35.8954 30.5137 35.6645C30.4425 35.6411 30.2082 35.8312 30.2004 35.9338C30.1491 36.6687 30.5728 37.0042 31.2877 37.0945ZM40.6458 51.2173C40.4942 50.9445 40.2903 50.9871 40.0956 51.1471C39.9053 51.3047 39.8416 51.5174 39.9627 51.7497C40.0697 51.9556 40.25 52.1565 40.4773 52.0324C40.8044 51.8531 40.7458 51.523 40.6458 51.2173Z" fill="#344E41"/>
</svg>
