<svg width="72" height="88" viewBox="0 0 72 88" fill="none" xmlns="http://www.w3.org/2000/svg">
<path d="M34.7876 33.2817C35.3099 32.1954 35.7579 31.2604 36.2094 30.3269C39.321 23.894 43.0214 17.8633 48.1277 12.7748C49.9772 10.9323 51.8599 9.13374 54.0525 7.70139C56.3253 6.21643 58.7745 5.20146 61.5415 5.10991C63.4437 5.0472 65.1689 5.55973 66.694 6.68715C70.2289 9.29954 71.9477 12.8562 71.9982 17.2023C72.0343 20.3164 71.5178 23.3685 70.554 26.3312C66.3812 39.1581 59.7729 50.6075 50.6548 60.5445C44.0379 67.7567 36.9918 74.5551 29.6242 81.0118C27.5587 82.8212 25.5012 84.6399 23.4343 86.4478C23.0109 86.8176 22.589 87.2004 22.118 87.5017C21.1318 88.1324 19.9932 88.1742 19.6139 87.5709C19.0497 86.6749 19.5771 85.8992 20.1673 85.3175C21.5696 83.9349 23.0217 82.5962 24.5252 81.3247C31.9014 75.0878 38.7676 68.3161 45.5514 61.4571C55.47 51.4293 62.6287 39.6959 67.2553 26.4055C68.3267 23.3274 68.9473 20.1657 68.857 16.8894C68.779 14.0716 67.6982 11.6964 65.6139 9.80631C63.9884 8.33287 62.1209 7.82177 59.9412 8.44676C57.6619 9.09985 55.66 10.2078 53.8517 11.718C47.8568 16.7236 43.4065 22.905 39.9495 29.8461C38.6946 32.3648 37.4657 34.8943 36.5627 37.5672C36.4507 37.8995 36.317 38.2268 36.1632 38.5418C35.8027 39.28 35.289 39.83 34.3852 39.7968C33.4814 39.7644 33.0082 39.1826 32.7048 38.4178C32.1319 36.9739 31.7793 35.4681 31.4723 33.9514C29.9652 26.5013 27.3117 19.5112 23.0962 13.1482C21.4562 10.6728 19.5634 8.41288 17.3469 6.4262C16.0783 5.28869 14.6962 4.32706 13.1061 3.69559C9.80521 2.38507 7.35248 3.18883 5.56297 6.25319C4.08266 8.78844 3.38983 11.5839 3.19043 14.4926C2.84944 19.4708 3.62029 24.3265 5.15623 29.0395C8.01931 37.8246 11.9531 46.1505 16.4091 54.2291C18.4609 57.9487 21.1701 61.1918 24.2969 64.0803C24.8373 64.5792 25.7895 65.1039 25.0677 65.943C24.3048 66.8297 23.6864 65.8572 23.1576 65.4038C19.3813 62.165 16.2256 58.3827 13.7736 54.0712C9.63326 46.7906 5.85773 39.3175 2.90073 31.4724C0.721092 25.6904 -0.450724 19.7137 0.161915 13.4863C0.411884 10.9467 1.04475 8.50803 2.06052 6.16813C2.48243 5.19642 3.038 4.30111 3.68242 3.45843C6.04557 0.37028 9.13477 -0.588456 12.8626 0.337845C15.4678 0.985175 17.594 2.4687 19.5533 4.22182C23.0586 7.35827 25.7736 11.1197 28.0211 15.2091C30.7787 20.2263 32.8204 25.5318 34.0355 31.1379C34.1793 31.7996 34.2523 32.483 34.7876 33.2817Z" fill="#344E41"/>
</svg>
