<svg width="75" height="93" viewBox="0 0 75 93" fill="none" xmlns="http://www.w3.org/2000/svg">
<path d="M29.2199 66.8676C27.8249 63.8996 25.9879 61.4986 24.5069 58.8936C18.9139 49.0516 13.5098 39.1086 11.4448 27.7926C10.6548 23.4666 10.3879 19.1056 10.9749 14.6936C11.6639 9.52465 14.4749 5.48065 18.2349 2.38165C22.3179 -0.98435 27.2029 -0.433344 31.7449 1.87166C35.9429 4.00266 39.1619 7.19265 41.1029 11.5776C41.4849 12.4396 41.6389 13.4486 42.5219 14.1656C44.3919 12.1846 46.2209 10.1757 48.1289 8.24466C50.7679 5.57366 53.8029 3.50565 57.4199 2.34965C63.3769 0.447652 68.2319 2.19865 71.4639 7.55465C74.4279 12.4667 75.0519 17.8427 74.0389 23.3717C70.8819 40.5997 61.5418 53.8046 47.3198 63.7006C43.8938 66.0846 40.2348 68.1317 36.7318 70.3027C36.5908 71.1097 37.1769 71.4117 37.5689 71.7767C41.9169 75.8347 46.2229 79.9347 51.3619 83.0777C54.0969 84.7547 59.2969 88.8596 59.8629 91.9026C59.0929 92.1946 58.4779 92.0317 57.7049 91.7617C55.7619 91.0827 53.9248 90.1827 52.2188 89.0397C45.5578 84.5787 39.1069 79.8507 33.9999 73.5777C33.0039 72.3547 32.2259 72.5157 31.0309 73.0527C24.9809 75.7737 18.7119 77.9237 12.4139 79.9837C10.0039 80.7717 7.54986 81.3997 5.00486 81.5997C3.91786 81.6847 2.81186 81.9056 2.44186 80.4216C2.20786 79.4856 1.21786 79.5827 0.60186 79.1647C0.15386 78.8597 -0.0901391 78.4697 0.0308609 77.9427C0.183861 77.2817 0.67786 76.9997 1.32386 77.0067C7.80086 77.0737 13.7269 75.0467 19.4029 72.1667C22.6879 70.4987 25.8929 68.6706 29.2199 66.8676ZM65.5978 39.3847C64.8928 39.4457 64.7239 40.0786 64.4079 40.5326C58.7259 48.6736 52.1299 55.9006 43.8229 61.4716C41.5299 63.0096 39.4049 64.7977 37.2029 66.4707C39.9279 65.4047 42.3778 63.9046 44.8328 62.4116C53.1028 57.3816 59.3419 50.3807 64.3679 42.2187C64.9069 41.3427 65.7619 40.5396 65.5389 39.3316C66.9959 38.3506 67.2369 36.7366 67.7109 35.2456C66.8009 36.5226 65.7158 37.7117 65.5978 39.3847ZM45.3919 32.3986C45.2359 36.1806 44.7469 41.1237 43.7929 46.0117C43.5319 47.3487 43.0239 48.6327 42.1249 49.7117C40.3339 51.8617 37.6948 51.9157 35.8008 49.8437C34.6948 48.6347 34.1799 47.1467 34.0759 45.5787C33.4909 36.6927 34.1049 28.0147 38.9159 20.1557C39.5769 19.0757 39.7459 18.0916 39.2519 16.8706C37.5409 12.6396 35.1269 8.86065 31.6889 5.88765C26.6209 1.50565 20.4359 3.21465 18.1489 9.42065C15.6869 16.1017 15.2429 22.8826 16.8249 29.8356C18.6509 37.8586 21.7759 45.4286 24.7179 53.0666C26.2019 56.9206 28.3418 60.3856 30.7748 63.7086C31.6818 64.9476 32.3668 65.2677 33.8438 64.5097C48.2398 57.1207 58.2848 45.7256 64.8308 31.0836C67.5228 25.0616 67.3039 18.9366 65.1809 12.8276C63.7149 8.61065 61.7109 7.67565 57.5299 9.21365C51.9989 11.2487 47.9479 15.0647 44.8429 19.9947C44.2699 20.9047 44.2329 21.7826 44.4209 22.7796C44.9489 25.5606 45.2639 28.3706 45.3919 32.3986ZM41.3568 27.4467C39.2308 31.3607 37.4209 38.4576 37.4509 42.1166C37.4609 43.3426 37.5799 44.4577 38.8639 45.0417C41.3479 41.5427 42.4598 34.0667 41.3568 27.4467ZM63.1739 6.25065C68.6219 10.1077 68.5048 16.1157 69.4968 21.7187C70.5598 18.2167 71.0939 14.6956 70.2559 11.1116C69.3809 7.37265 67.1109 5.81465 63.1739 6.25065Z" fill="#344E41"/>
</svg>
