<svg width="151" height="151" viewBox="0 0 151 151" fill="none" xmlns="http://www.w3.org/2000/svg">
<path d="M151 75.5C151 117.197 117.197 151 75.5 151C33.8025 151 0 117.197 0 75.5C0 33.8025 33.8025 0 75.5 0C117.197 0 151 33.8025 151 75.5Z" fill="#344E41"/>
<path d="M110.498 108.987C100.52 109.975 90.5847 108.923 81.3153 104.964C79.505 104.191 77.7611 103.298 76.0563 102.343C87.2961 95.7367 97.4432 87.5807 104.992 76.7002C111.879 66.773 117.561 52.9377 113.802 40.7814C112.314 35.9676 108.845 31.3251 103.661 30.2437C97.3537 28.929 91.5562 33.1769 87.1388 37.1628C80.9746 42.7239 76.3883 49.5898 72.5844 56.8976C72.3101 55.0746 71.9463 53.2646 71.4714 51.4761C70.0538 46.1295 67.6198 40.5338 63.0393 37.1311C58.606 33.8379 52.5457 33.4476 48.0489 36.856C44.1021 39.8469 42.4636 44.9804 41.8487 49.6848C40.4051 60.7294 43.5478 72.7086 48.6928 82.4342C52.7796 90.1582 58.4746 96.8253 65.3678 102.061C56.3395 106.744 46.8478 110.566 37.4774 114.474C36.145 115.03 35.5546 116.603 36.3789 117.816C37.2854 119.149 39.2155 119.223 40.5668 118.693C50.5204 114.782 60.757 110.594 70.4132 105.474C71.2462 105.982 72.0719 106.502 72.9323 106.971C84.4378 113.258 98.3325 116.01 111.315 113.803C114.676 113.23 113.778 108.663 110.498 108.987ZM58.3144 86.3999C52.514 78.1474 48.931 68.2677 48.2352 58.2023C47.9306 53.8132 47.9407 49.2831 49.5229 45.1158C50.594 42.2963 53.0279 38.6863 56.5575 39.795C61.2752 41.2768 63.611 47.3564 64.8655 51.5928C66.7551 57.9776 67.1233 64.6678 66.1979 71.2485C65.9929 72.7043 67.8451 73.6705 69.0014 73.7828C70.4508 73.9239 71.9579 73.3523 72.5483 71.9353C76.6106 62.1939 81.1103 52.4078 88.1378 44.3943C89.7965 42.5022 91.614 40.7584 93.5729 39.1759C95.4655 37.6466 97.6237 35.8841 100.032 35.2793C104.205 34.231 106.705 39.0995 107.677 42.3755C109.246 47.666 108.42 53.7412 106.882 58.9381C105.27 64.3798 102.669 69.4542 99.4369 74.1097C93.1601 83.1513 84.6674 90.4045 75.4269 96.3069C73.9313 97.2617 72.414 98.1789 70.8795 99.0645C66.042 95.5841 61.7819 91.3318 58.3144 86.3999Z" fill="#F4F2EB"/>
</svg>
