<svg xmlns="http://www.w3.org/2000/svg" viewBox="0 0 948.68 948.68">
  <style>
    path {
      fill: #000;
    }
    @media (prefers-color-scheme: dark) {
      path {
        fill: #fff;
      }
    }
  </style>
  <path
    d="M895.42,431.21l-189.66-240.49-3.5-4.44H246.42l-3.5,4.44L53.26,431.21l-6.45,8.17,7.4,7.32,411.93,407.59,8.19,8.11,8.19-8.11,411.93-407.59,7.4-7.32-6.45-8.17ZM542.87,712.65l125.68-246.54h123.49l-249.17,246.54ZM474.34,718.82l-128.83-252.71h257.65l-128.83,252.71ZM156.64,466.11h123.49l125.68,246.54-249.17-246.54ZM433.03,244.53l-144.46,163.33h-142.71l128.81-163.33h158.36ZM366.33,407.86l108.01-122.12,108.01,122.12h-216.02ZM660.11,407.86l-144.46-163.33h158.36l128.81,163.33h-142.71Z"
  />
</svg>
