<svg xmlns="http://www.w3.org/2000/svg" viewBox="0 0 5290.66 497.45">
  <path
    d="M5290.66,48.8s-34.31,3.39-95.25,23.7-128.64,10.16-176.04,20.31-88.02,49.09-126.95,62.63-56.11,25.39-100.84,37.24-81.32,5.42-110.36,4.23-31.41,6.2-63.42,2.8-99.57-3.99-143.43,21.5-125.65-1.78-173.06-10.08-53.93,11.85-82.98,4.74-30.23-34.97-79.42-20.74-213.61-74.92-316.42-105.76-188.14-9.25-217.96-20.56-143.93-18.43-259.08-20.01-284.78,35.43-313.57,21.04-34.96-25.7-123.37-34.96-250.86,10.28-354.69-6.17-168.61-32.9-240.57-27.76-68.88,30.84-127.48,23.65-57.57-8.22-118.23,3.08-90.47,10.28-136.74,7.2-111.03,5.14-160.38,25.7-82.25,15.42-123.37,16.45-47.29,9.25-93.56,7.2-127.48-2.06-160.38-17.48-69.91-5.14-111.03-3.08-76.08,8.22-143.93-3.08-1.03-10.28-95.61-9.25-125.43,13.37-176.83,26.73-126.46-30.84-183-33.93-107.95-4.11-233.38,29.81-210.76,33.93-287.87,17.48S0,94.51,0,94.51v402.93h5290.66V48.8"
  />
</svg>
