<svg xmlns="http://www.w3.org/2000/svg" viewBox="0 0 5291 872">
  <path
    d="M0,423.96s22.31,5.11,60.99,11.11,38.68,14.67,66.02,13.34,40.01-10.31,64.02-12.16,98.03-1.18,134.71-7.18,69.36-16.67,84.03-16.67,27.34,4.67,56.02,4.67,35.34-4.67,56.02-4.67,34.01,6.67,48.68,4,8-3.33,31.34-4,40.68,7.34,62.69,6.67,88.69-21.34,138.04-37.35,84.03-16.67,124.04,0,80.69,34.01,90.7,40.01,16.01-2,24.67,2.67,16.67,12.67,28.01,8.67,20.01,9.34,26.01,7.34,20.67-4.67,43.35-1.33,8,5.34,22.67,3.33,34.01-7.34,46.68-4.67,24.01,9.34,52.68,6.67,42.01-3.33,64.69-11.34,34.68-10.67,56.02-11.34,35.34-2,46.01-8.67,62.02-5.34,74.02-.67,37.35,34.01,55.35,32.01,72.02-17.34,115.37-18.67c49.35-22.01,87.36-28.68,127.37-40.01s96.03-32.01,116.7-38.68,19.34,5.34,46.01-12,34.01-30.01,44.68-30.01,24.01.67,27.34-5.34,143.38-2.67,149.38,0,6.67,11.34,18.67,4.67,19.34-.67,32.01-12.67,20.67-8.67,35.34-14,40.01-6.67,69.36-38.01,50.02-24.67,52.68-32.68,1.33-14.67,6-14.67,20.01-2,38.68-20.67,41.35-14,60.69-35.34,14-14.67,29.34-29.34,24.67-8.67,29.34-16.01,60.02-42.01,66.02-50.02,6.67,2,13.34-4,36.68-27.34,44.01-36.01c24.67-3.33,50.02,2,75.36,20.01s46.01,26.68,82.03,26.68c0,0,24.67,3.33,30.68,4s10,8.67,21.34,14,10.67,2,10.67,2c0,0,33.34,32.01,44.01,40.68s13.34,21.34,54.68,37.35,151.38,56.55,214.74,78.63,354.11,99.43,401.46,107.43,314.1,72.02,359.45,64.02,30.68-4,30.68-4c0,0,58.69,12.67,70.02,0l11.34-12.67s54.02,18.01,72.02,7.34,10-11.34,24.67-11.34,12.67,14.67,54.02,8.67,102.03-26.68,122.04-26.68,62.02,21.34,77.36,21.34,19.34-13.34,30.68-14,36.01-2,49.35,5.34,83.36,14.67,93.36,7.34,8-6.67,16.67-8,36.68,6.67,60.02,6.67,50.02-8,110.04,6.67,113.37,27.34,173.39,42.01,56.68,28.68,119.37,20.01,84.03,9.34,128.71-5.34,72.69-18.01,72.69-18.01v450.71H0v-447.82"
  />
</svg>
