<svg viewBox="0 0 72 75" fill="none" xmlns="http://www.w3.org/2000/svg">
  <g clip-path="url(#clip0_30_385)">
    <path
      fill-rule="evenodd"
      clip-rule="evenodd"
      d="M42.8401 73.3117C42.7266 73.6738 42.3415 73.8755 41.9789 73.763C41.6197 73.6513 41.418 73.2729 41.5251 72.9124C43.7137 65.475 39.5437 57.6549 32.15 55.3264L29.4189 56.8161C30.6508 59.6371 29.0706 61.2446 26.2672 61.5843C24.3808 61.8131 22.1506 61.4558 21.1349 61.055C20.8207 60.9291 20.6446 60.5945 20.7192 60.2652C21.0818 58.5811 22.8158 55.0748 24.9488 54.1271C26.5025 53.4373 27.8146 54.187 28.7639 55.6128L30.3936 54.7235C23.1204 51.755 19.185 43.8456 21.2044 36.2539L19.1291 34.0751C16.7223 35.9911 14.7598 34.8781 13.7081 32.2638C12.9988 30.502 12.7676 28.254 12.8922 27.1691C12.9305 26.8378 13.2023 26.5817 13.5365 26.5626C15.2211 26.4619 19.0976 27.2326 20.5722 29.057C21.6405 30.3781 21.257 31.8411 20.1255 33.1271L21.6845 34.7625C23.0163 31.2216 25.2546 29.2955 27.4297 27.4222C30.1948 25.0423 32.8535 22.7533 33.0786 17.0053L30.9289 14.7502C28.5221 16.6662 26.5596 15.5532 25.5079 12.9389C24.7996 11.1777 24.5665 8.92853 24.6911 7.84362C24.7294 7.51225 25.0012 7.25621 25.3353 7.23708C27.0199 7.13642 30.8965 7.90712 32.3711 9.73147C33.4394 11.0525 33.0558 12.5156 31.9243 13.8016L33.2052 15.1463C33.6512 11.5795 35.3191 8.2761 37.925 5.80037C38.1995 5.53785 38.6351 5.5484 38.897 5.82379C39.1589 6.09919 39.149 6.53385 38.8736 6.79577C36.3608 9.18053 34.8068 12.403 34.5071 15.8534L36.9139 15.2717C36.6606 13.584 37.1321 12.1397 38.7425 11.6081C40.9771 10.8703 44.6055 12.3119 46.0007 13.3152C46.2766 13.5104 46.3696 13.8776 46.2194 14.181C45.474 15.6865 42.8627 18.6642 40.5386 19.029C38.8634 19.2926 37.7826 18.2232 37.2367 16.6055L34.4367 17.2832C34.1343 23.4596 31.2858 25.9123 28.3246 28.4615C26.3178 30.1889 24.2559 31.9647 23.0261 35.1028L25.1144 34.5982C24.8611 32.9105 25.3311 31.4666 26.9424 30.9356C29.1771 30.1978 32.8054 31.6394 34.2007 32.6426C34.4766 32.8379 34.5696 33.2051 34.4194 33.5084C33.674 35.014 31.0633 37.9907 28.7386 38.3564C27.0634 38.6201 25.9826 37.5507 25.4367 35.933L22.5254 36.6368C20.6429 43.7531 24.4994 51.1292 31.4169 53.6455L31.4774 51.1684C28.4184 50.824 27.8188 48.6468 28.9255 46.0516C29.6656 44.3171 31.0802 42.5736 31.9362 41.8866C32.1949 41.6696 32.5739 41.6739 32.8286 41.8951C34.4206 43.2872 37.9859 48.802 34.7512 50.6898C34.2714 50.9694 33.6461 51.1508 32.8475 51.2023L32.7771 54.0832C36.5352 55.3231 39.68 57.949 41.571 61.425C43.5597 65.0558 44.0186 69.3307 42.8457 73.3004L42.8423 73.3104L42.8401 73.3117ZM28.9488 12.6751C28.6863 12.4007 28.6969 11.9651 28.9723 11.7032C29.2467 11.4407 29.6823 11.4512 29.9442 11.7266L30.9709 12.8032C31.575 12.0862 31.8927 11.3301 31.2998 10.5974C30.266 9.3189 27.3826 8.69336 26.0279 8.61237C26.0417 9.96585 26.5273 12.8824 27.7519 13.9737C28.4566 14.6026 29.2282 14.3223 29.9755 13.7518L28.9498 12.6757L28.9488 12.6751ZM38.2549 14.948L39.7016 14.5987C40.0707 14.5135 40.44 14.7429 40.5251 15.112C40.6095 15.4779 40.3851 15.8435 40.0213 15.9332L38.5787 16.2823C38.8979 17.1664 39.393 17.8193 40.3257 17.6736C41.9456 17.4192 43.936 15.2277 44.6798 14.1014C43.5023 13.4392 40.73 12.4004 39.1721 12.9144C38.2756 13.2098 38.1342 14.0184 38.2543 14.9489L38.2549 14.948ZM17.15 32.0007C16.8875 31.7262 16.898 31.2906 17.1734 31.0287C17.4478 30.7662 17.8835 30.7767 18.1454 31.0521L19.172 32.1287C19.7762 31.4117 20.0938 30.6556 19.5009 29.9229C18.4672 28.6444 15.5838 28.0189 14.229 27.9379C14.2429 29.2914 14.7291 32.2069 15.9531 33.2992C16.6577 33.9281 17.4294 33.6479 18.1766 33.0773L17.151 32.0013L17.15 32.0007ZM26.4561 34.2735L27.9028 33.9242C28.2719 33.839 28.6411 34.0684 28.7263 34.4375C28.8107 34.8034 28.5862 35.169 28.2224 35.2587L26.7799 35.6078C27.099 36.4919 27.5942 37.1448 28.5269 36.9991C30.1467 36.7447 32.1372 34.5532 32.8815 33.4259C31.7041 32.7638 28.9318 31.725 27.3739 32.2389C26.4774 32.5343 26.336 33.3429 26.4561 34.2735ZM26.9047 58.1881C26.5732 58.3702 26.1558 58.2484 25.9743 57.916C25.7923 57.5845 25.914 57.1671 26.2465 56.9856L27.5541 56.2719C27.0169 55.5007 26.3692 54.9966 25.5049 55.3802C24.0041 56.0472 22.6511 58.6761 22.2244 59.961C23.5404 60.2992 26.4726 60.585 27.8487 59.682C28.6395 59.1635 28.5665 58.345 28.2101 57.4758L26.9047 58.1881ZM31.5098 49.792L31.5465 48.3028C31.5594 47.925 31.8764 47.628 32.2542 47.6409C32.6284 47.6529 32.9233 47.9646 32.9164 48.3393L32.8804 49.8249C33.8174 49.745 34.577 49.436 34.6775 48.4963C34.8519 46.8586 33.2563 44.3826 32.3537 43.3669C31.4071 44.3345 29.687 46.7394 29.7801 48.3791C29.8342 49.3231 30.5793 49.6676 31.5092 49.793L31.5098 49.792Z"
      fill="#344E41"
    />
  </g>
  <defs>
    <clipPath id="clip0_30_385">
      <rect
        width="56.4305"
        height="49.6862"
        fill="white"
        transform="translate(0 48.1694) rotate(-58.6062)"
      />
    </clipPath>
  </defs>
</svg>
